<?xml version="1.0"?>
<svg xmlns="http://www.w3.org/2000/svg" xmlns:xlink="http://www.w3.org/1999/xlink" version="1.1" id="Layer_1" x="0px" y="0px" viewBox="0 0 512 512" style="enable-background:new 0 0 512 512;" xml:space="preserve" width="512px" height="512px"><g><g>
	<g>
		<path d="M186.395,78.124c-19.276,0-34.902,15.627-34.902,34.902c0,19.383,15.762,34.902,34.902,34.902    c19.238,0,34.901-15.594,34.901-34.902C221.295,93.751,205.67,78.124,186.395,78.124z" data-original="#000000" class="active-path" data-old_color="#000000" fill="#FFFFFF"/>
	</g>
</g><g>
	<g>
		<path d="M165.387,409.151l-9.378-60.634h-38.116l10.267,66.391c1.593,10.299,11.235,17.325,21.491,15.735    C159.932,429.052,166.976,419.431,165.387,409.151z" data-original="#000000" class="active-path" data-old_color="#000000" fill="#FFFFFF"/>
	</g>
</g><g>
	<g>
		<path d="M213.288,348.518l-9.378,60.634c-1.589,10.278,5.455,19.901,15.735,21.491c10.258,1.589,19.899-5.437,21.491-15.735    l10.267-66.391H213.288z" data-original="#000000" class="active-path" data-old_color="#000000" fill="#FFFFFF"/>
	</g>
</g><g>
	<g>
		<path d="M288.488,297.699H128.757c0.905-1.437,1.437-3.133,1.437-4.958c0-3.187-1.602-5.997-4.042-7.679l64.683-0.091    c-1.445-1.169-2.89-4.014-3.595-5.612c-6.605-14.996,0.197-32.507,15.192-39.113c35.313-15.554,27.804-12.246,32.535-14.331    l-3.265-25.989c-0.077-0.611,0.296-1.189,0.884-1.371c0.588-0.182,1.223,0.083,1.505,0.631l17.276,33.524l-43.762,19.277    c-8.511,3.749-12.372,13.689-8.622,22.2c3.749,8.512,13.689,12.371,22.2,8.622l58.943-25.964    c8.306-3.659,12.217-13.241,8.846-21.668c-4.477-11.165-14.925-34.953-24.419-54.484c-6.393-13.146-19.972-21.642-34.595-21.642    c-7.467,0-81.701,0-81.701,0c-8.189,0-16.047,2.666-22.504,7.319h0.001h14.748c11.042,0,19.995,8.952,19.995,19.995v65.941    c0,10.65-8.376,19.356-18.883,19.938c-1.389,0.078,1.495,0.057-16.329,0.057l-2.252,11.379c-0.694-0.165-1.414-0.262-2.159-0.262    H99.237v-22.307h41.264c4.864,0,8.806-3.943,8.806-8.806v-65.941c0-4.864-3.943-8.806-8.806-8.806H27.586    c-4.864,0-8.806,3.943-8.806,8.806v65.941c0,4.864,3.943,8.806,8.806,8.806H68.85v22.307H47.216c-5.118,0-9.323,4.155-9.323,9.323    c0,1.824,0.532,3.52,1.438,4.958H19.859c-10.658,0-19.729,8.401-19.858,19.059c-0.122,10.227,7.716,18.635,17.704,19.452    c0,2.98,0,123.057,0,121.943c0,7.7,6.024,14.306,13.723,14.446c7.844,0.143,14.247-6.172,14.247-13.983    c0-13.152,0-109.246,0-122.326h217.058c0,4.023,0,123.032,0,121.863c0,7.7,6.024,14.306,13.723,14.446    c7.844,0.144,14.247-6.172,14.247-13.983c0-4.558,0-117.009,0-122.409c9.967-0.849,17.776-9.258,17.64-19.477    C308.201,306.083,299.136,297.699,288.488,297.699z M84.043,232.154c-7.08,0-12.819-5.739-12.819-12.819    c0-7.08,5.739-12.82,12.819-12.82c7.08,0,12.82,5.74,12.82,12.82C96.863,226.415,91.123,232.154,84.043,232.154z" data-original="#000000" class="active-path" data-old_color="#000000" fill="#FFFFFF"/>
	</g>
</g><g>
	<g>
		<circle cx="417.108" cy="74.864" r="35.466" data-original="#000000" class="active-path" data-old_color="#000000" fill="#FFFFFF"/>
	</g>
</g><g>
	<g>
		<path d="M511.393,446.958l-22.128-89.671v-78.52l1.241-0.102l-10.91-132.722c-1.174-14.287-13.709-24.916-27.994-23.742    l-46.131,3.792c-14.287,1.174-24.916,13.708-23.742,27.994l1.919,23.338l7.26-0.924l23.224-17.699l-23.181,32.587l-22.346,2.844    c-1.236-4.483-5.332-7.78-10.208-7.78h-36.695h-23.951c-5.854,0-10.599,4.746-10.599,10.599c0,5.854,4.745,10.599,10.599,10.599    c7.671,0,13.712,0,21.173,0c-1.727,3.101-2.531,6.751-2.048,10.542c1.201,9.437,9.824,16.125,19.274,14.92l66.646-8.484    c4.774-0.608,9.078-3.184,11.868-7.107l27.558-38.741l-15.518,47.304c-2.242,6.835-8.174,11.426-14.861,12.289    c-9.008,1.142-4.038,0.51-22.944,2.917l3.457,42.048l-29.098,71.895c-1.731,4.278-1.982,9.011-0.713,13.448l25.462,89.018    c2.598,9.081,10.878,15.001,19.875,15.001c1.882,0,3.798-0.258,5.698-0.802c10.982-3.142,17.339-14.592,14.199-25.573    l-23.504-82.171l32.782-80.995l10.846-0.892v77.635c0,1.669,0.202,3.334,0.602,4.955l22.73,92.112    c2.325,9.426,10.772,15.733,20.064,15.733c1.641,0,3.308-0.197,4.972-0.608C507.358,469.256,514.13,458.048,511.393,446.958z" data-original="#000000" class="active-path" data-old_color="#000000" fill="#FFFFFF"/>
	</g>
</g><g>
	<g>
		<path d="M358.397,152.448h-60.645c-5.854,0-10.599,4.746-10.599,10.599c0,5.854,4.745,10.599,10.599,10.599h60.645    c5.854,0,10.599-4.746,10.599-10.599C368.996,157.194,364.251,152.448,358.397,152.448z" data-original="#000000" class="active-path" data-old_color="#000000" fill="#FFFFFF"/>
	</g>
</g><g>
	<g>
		<path d="M358.397,118.541h-60.645c-5.854,0-10.599,4.746-10.599,10.599c0,5.853,4.745,10.599,10.599,10.599h60.645    c5.854,0,10.599-4.746,10.599-10.599C368.996,123.287,364.251,118.541,358.397,118.541z" data-original="#000000" class="active-path" data-old_color="#000000" fill="#FFFFFF"/>
	</g>
</g></g> </svg>
