<?xml version="1.0"?>
<svg xmlns="http://www.w3.org/2000/svg" xmlns:xlink="http://www.w3.org/1999/xlink" version="1.1" id="Layer_1" x="0px" y="0px" viewBox="0 0 512 512" style="enable-background:new 0 0 512 512;" xml:space="preserve" width="512px" height="512px" class=""><g><g>
	<g>
		<circle cx="140.105" cy="125.465" r="43.996" data-original="#000000" class="active-path" data-old_color="#000000" fill="#FFFFFF"/>
	</g>
</g><g>
	<g>
		<path d="M489.552,293.158H289.049c7.887-2.656,13.576-10.097,13.576-18.88c0-11.008-8.924-19.933-19.933-19.933H219.88    l-37.329-30.198c0.225-4.33-0.487-8.498-1.97-12.303l-49.937,10.477l158.129-50.668c10.484-3.358,16.259-14.581,12.901-25.064    c-3.36-10.484-14.58-16.261-25.065-12.899c-8.093,2.594-166.99,53.506-173.619,55.631c-17.461,5.282-29.332,19.863-29.205,36.581    v134.4h-10.6L42.192,194.523c-1.381-10.902-11.337-18.624-22.239-17.239c-10.901,1.38-18.62,11.337-17.239,22.238l23.198,183.176    c1.259,9.943,9.717,17.397,19.739,17.397h58.743v64.75H89.876c-3.518,0-6.892,1.399-9.38,3.886l-19.979,19.979    c-5.181,5.181-5.181,13.578,0,18.758c5.181,5.181,13.578,5.181,18.758,0l16.093-16.093h43.148l16.094,16.093    c5.181,5.181,13.579,5.181,18.758,0c5.181-5.181,5.181-13.578,0-18.758l-19.979-19.979c-2.487-2.487-5.861-3.886-9.38-3.886    h-13.09v-64.75h46.827c9.812,0,17.946-7.109,19.579-16.455l13.706,107.271c2.63,20.581,28.398,28.127,41.811,12.621    c-0.923-4.834-0.674-1.302-0.674-68.122l-9.454-73.99c-1.24-9.708-8.271-17.682-17.748-20.128l-49.805-12.859l3.959-55.779    l21.167,17.124c3.549,2.87,7.973,4.436,12.537,4.436h47.073c-7.87,2.652-13.546,10.078-13.546,18.842    c0,10.966,8.874,19.858,19.833,19.894v50.689c6.436-5.188,14.61-8.303,23.502-8.303h3.026v-42.382h171.471v165.065    c0,7.326,5.939,13.265,13.265,13.265s13.265-5.939,13.265-13.265V332.892c10.443-0.606,18.733-9.242,18.733-19.837    C509.449,302.066,500.54,293.158,489.552,293.158z" data-original="#000000" class="active-path" data-old_color="#000000" fill="#FFFFFF"/>
	</g>
</g><g>
	<g>
		<path d="M407.588,397.333h-22.513c0-18.431,0.219-18.762-0.735-22c-2.182-7.408-9.033-12.834-17.137-12.834h-36.377    c-8.105,0-14.956,5.427-17.137,12.834c-0.952,3.232-0.735,3.51-0.735,22h-23.263c-8.571,0-15.518,6.948-15.518,15.518v83.63    c0,8.571,6.948,15.518,15.518,15.518h117.896c8.571,0,15.518-6.948,15.518-15.518v-83.63    C423.106,404.281,416.158,397.333,407.588,397.333z M366.908,397.333H331.12v-16.668h35.787V397.333z" data-original="#000000" class="active-path" data-old_color="#000000" fill="#FFFFFF"/>
	</g>
</g><g>
	<g>
		<path d="M375.991,0c-54.536,0-98.745,30.667-98.745,68.497c0,3.489,0.378,6.916,1.104,10.263l-23.996,23.213    c-1.667,1.613-2.112,4.114-1.103,6.202c1.009,2.088,3.244,3.295,5.545,2.992l35.068-4.633    c17.712,18.365,47.882,30.461,82.128,30.461c54.536,0,98.745-30.667,98.745-68.497S430.526,0,375.991,0z M388.815,36.953    c2.594,0,4.789,1.463,4.789,4.057c0,7.914-0.932,19.286-0.932,27.2c0,2.061-2.261,2.927-3.857,2.927    c-2.128,0-3.924-0.864-3.924-2.927c0-7.914-0.931-19.286-0.931-27.2C383.961,38.417,386.089,36.953,388.815,36.953z     M340.202,86.233c-2.153,0-1.888-0.404-8.446-10.242l-6.051,9.178c-2.169,2.981-9.111-1.222-9.111-4.057    c0-1.286,0.23-1.239,8.114-11.704c-7.145-9.525-7.449-9.6-7.449-10.706c0-2.99,7.356-7.159,9.177-4.124l5.32,8.712l5.388-8.645    c1.973-3.207,9.177,1.235,9.177,4.056c0,0.531-0.2,0.997-0.665,1.663l-6.85,9.111l7.582,9.909    C348.8,82.404,343.17,86.233,340.202,86.233z M371.193,83.242c-3.325,8.379-4.721,16.759-18.222,16.759    c-2.66,0-4.723-0.466-4.723-4.389c0-2.262,0.665-4.257,2.527-4.257c2.394,0,9.444-0.134,9.444-8.512l-11.638-23.144    c-2.152-4.293,7.895-8.74,9.51-4.587l7.515,18.022l5.519-18.022c1.531-3.938,9.776-0.007,9.776,3.458    C380.902,59.333,381.455,57.659,371.193,83.242z M388.881,85.968c-2.927,0-5.121-2.393-5.121-5.121    c0.001-2.793,2.195-5.121,5.121-5.121c2.726,0,5.054,2.328,5.054,5.121C393.936,83.574,391.608,85.968,388.881,85.968z     M431.774,53.115c5.115,7.379,5.187,7.109,5.187,8.645c0,3.233-4.906,4.922-6.584,2.328l-4.323-6.65    c-4.981,7.623-4.717,7.914-6.716,7.914c-3.027,0-5.563-3.108-3.391-5.587l4.389-6.252l-6.917-1.995    c-3.5-0.761-2.816-7.049,1.396-7.049c0.622,0,7.387,2.268,7.98,2.461l-0.332-6.784c0.128-4.239,6.984-4.345,7.116,0l-0.266,6.917    c0.635-0.216,7.379-2.594,8.046-2.594c2.061,0,3.458,2.194,3.458,4.124C440.819,51.607,438.844,51.452,431.774,53.115z" data-original="#000000" class="active-path" data-old_color="#000000" fill="#FFFFFF"/>
	</g>
</g></g> </svg>
